<svg width="1280" height="720" viewBox="0 0 1280 720" fill="none" xmlns="http://www.w3.org/2000/svg">
<g clip-path="url(#clip0_118_51)">
<rect width="1280" height="720" fill="#060709"/>
<rect width="1280" height="720" fill="url(#paint0_linear_118_51)"/>
<rect width="1280" height="720" fill="url(#paint1_linear_118_51)"/>
<rect x="33" y="261" width="507" height="83" rx="41.5" fill="url(#paint2_linear_118_51)" stroke="#52525B" stroke-width="2"/>
<rect x="33" y="33" width="162" height="39" rx="19.5" fill="url(#paint3_linear_118_51)" stroke="#52525B" stroke-width="2"/>
<rect x="1153" y="31" width="97" height="39" rx="19.5" fill="url(#paint4_linear_118_51)" stroke="#52525B" stroke-width="2"/>
<rect x="33" y="415" width="662" height="83" rx="41.5" fill="url(#paint5_linear_118_51)" stroke="#52525B" stroke-width="2"/>
<path d="M82 569C109.062 569 131 590.938 131 618C131 645.062 109.062 667 82 667C54.938 667 33 645.062 33 618C33 590.938 54.938 569 82 569Z" fill="url(#paint6_linear_118_51)" stroke="#71717A" stroke-width="2"/>
<path d="M236 569C263.062 569 285 590.938 285 618C285 645.062 263.062 667 236 667C208.938 667 187 645.062 187 618C187 590.938 208.938 569 236 569Z" fill="url(#paint7_linear_118_51)" stroke="#71717A" stroke-width="2"/>
<path d="M390 569C417.062 569 439 590.938 439 618C439 645.062 417.062 667 390 667C362.938 667 341 645.062 341 618C341 590.938 362.938 569 390 569Z" fill="url(#paint8_linear_118_51)" stroke="#71717A" stroke-width="2"/>
<path d="M544 569C571.062 569 593 590.938 593 618C593 645.062 571.062 667 544 667C516.938 667 495 645.062 495 618C495 590.938 516.938 569 544 569Z" fill="url(#paint9_linear_118_51)" stroke="#71717A" stroke-width="2"/>
</g>
<defs>
<linearGradient id="paint0_linear_118_51" x1="880" y1="561.5" x2="10.4999" y2="11.5" gradientUnits="userSpaceOnUse">
<stop stop-color="#09090B"/>
<stop offset="1" stop-color="#18181B"/>
</linearGradient>
<linearGradient id="paint1_linear_118_51" x1="640" y1="0" x2="640" y2="720" gradientUnits="userSpaceOnUse">
<stop stop-color="#D9D9D9" stop-opacity="0.25"/>
<stop offset="1" stop-color="#D9D9D9" stop-opacity="0"/>
</linearGradient>
<linearGradient id="paint2_linear_118_51" x1="32" y1="302.5" x2="541" y2="302.5" gradientUnits="userSpaceOnUse">
<stop stop-color="#27272A"/>
<stop offset="1" stop-color="#3F3F46"/>
</linearGradient>
<linearGradient id="paint3_linear_118_51" x1="32" y1="52.5" x2="196" y2="52.5" gradientUnits="userSpaceOnUse">
<stop stop-color="#27272A"/>
<stop offset="1" stop-color="#3F3F46"/>
</linearGradient>
<linearGradient id="paint4_linear_118_51" x1="1152" y1="50.5" x2="1251" y2="50.5" gradientUnits="userSpaceOnUse">
<stop stop-color="#27272A"/>
<stop offset="1" stop-color="#3F3F46"/>
</linearGradient>
<linearGradient id="paint5_linear_118_51" x1="32" y1="456.5" x2="696" y2="456.5" gradientUnits="userSpaceOnUse">
<stop stop-color="#27272A"/>
<stop offset="1" stop-color="#3F3F46"/>
</linearGradient>
<linearGradient id="paint6_linear_118_51" x1="67.5" y1="677" x2="149.5" y2="585.5" gradientUnits="userSpaceOnUse">
<stop stop-color="#3F3F46"/>
<stop offset="1" stop-color="#52525B"/>
</linearGradient>
<linearGradient id="paint7_linear_118_51" x1="221.5" y1="677" x2="303.5" y2="585.5" gradientUnits="userSpaceOnUse">
<stop stop-color="#3F3F46"/>
<stop offset="1" stop-color="#52525B"/>
</linearGradient>
<linearGradient id="paint8_linear_118_51" x1="375.5" y1="677" x2="457.5" y2="585.5" gradientUnits="userSpaceOnUse">
<stop stop-color="#3F3F46"/>
<stop offset="1" stop-color="#52525B"/>
</linearGradient>
<linearGradient id="paint9_linear_118_51" x1="529.5" y1="677" x2="611.5" y2="585.5" gradientUnits="userSpaceOnUse">
<stop stop-color="#3F3F46"/>
<stop offset="1" stop-color="#52525B"/>
</linearGradient>
<clipPath id="clip0_118_51">
<rect width="1280" height="720" fill="white"/>
</clipPath>
</defs>
</svg>
