<svg width="256" height="256" viewBox="0 0 256 256" fill="none" xmlns="http://www.w3.org/2000/svg">
<path fill-rule="evenodd" clip-rule="evenodd" d="M81.5977 5.8539C71.9868 9.52206 45.1154 26.4157 41.0737 31.3313C34.1352 39.7735 31.3915 47.1825 30.5328 59.8035L29.7466 71.3583L21.1725 77.0001C11.3346 83.4739 5.06892 91.8619 1.89912 102.795C-1.32475 113.914 -0.235177 149.097 3.59284 157.544C7.32325 165.773 15.0268 174.064 23.2843 178.738L30.0869 182.587L30.6647 194.126C31.6712 214.211 38.2561 223.95 59.1744 236.296C80.148 248.675 85.0419 250.543 96.5827 250.576C105.866 250.603 107.573 250.156 117.38 245.132L128.062 239.66L137.704 244.664C156.301 254.314 166.778 253.265 191.457 239.281C217.767 224.375 224.378 215.599 225.397 194.233L225.952 182.587L232.754 178.738C241.049 174.043 248.623 165.871 252.336 157.607C256.19 149.034 257.346 113.856 254.14 102.795C251.021 92.0365 244.717 83.6102 234.866 77.0305L226.292 71.3054L225.538 59.7427C224.903 50.0253 224.081 46.8611 220.383 39.9018C214.85 29.4926 211.258 26.3562 192.513 15.562C174.121 4.97159 169.473 3.48474 156.781 4.12763C148.501 4.54696 145.406 5.42266 137.469 9.59085L128.019 14.5554L118.546 9.5763C109.986 5.07741 107.981 4.56813 97.7698 4.29695C90.5649 4.10514 84.7015 4.66998 81.5977 5.8539ZM109.241 13.9455C111.607 14.9218 130.751 25.663 151.782 37.8144L190.017 59.9067V71.0858C190.017 80.9857 189.765 82.1683 187.814 81.4169C186.602 80.9513 163.399 67.71 136.252 51.9936C109.104 36.2786 83.9774 22.5624 80.4145 21.5147C76.8516 20.467 73.9364 19.3704 73.9364 19.0754C73.9364 18.0172 84.5525 13.1373 89.4147 11.9613C95.1132 10.5816 103.003 11.3714 109.241 13.9455ZM173.671 14.5223C180.182 17.3187 185.611 24.0704 188.149 32.5271C190.198 39.3528 190.679 50.7145 188.891 50.0134C185.003 48.4921 137.286 20.2898 137.272 19.5053C137.241 17.9034 147.682 13.0844 153.536 11.9984C160.377 10.7285 166.677 11.5182 173.671 14.5223ZM207.35 35.2442C217.291 45.7407 217.014 44.021 217.448 97.8807L217.837 146.188L208.214 151.705L198.591 157.221L197.854 94.7985C197.449 60.4662 196.622 30.9781 196.016 29.269C194.933 26.208 194.975 26.1908 198.732 28.1671C200.831 29.2703 204.709 32.4557 207.35 35.2442ZM84.8189 31.531C88.2644 33.2163 91.0794 34.9902 91.0741 35.4704C91.0649 36.2297 42.8571 64.5947 39.2692 65.9533C36.9594 66.8263 39.0779 49.9075 41.9878 44.2433C45.0917 38.198 51.9945 31.1633 56.7881 29.1579C62.4338 26.7967 77.8013 28.097 84.8189 31.531ZM110.272 45.9351C114.925 48.6641 118.594 51.3362 118.428 51.8759C118.262 52.4156 95.5696 65.9056 68.0004 81.8561C40.4313 97.8053 15.5557 112.805 12.7223 115.186L7.56993 119.517L8.28883 111.566C9.12382 102.335 12.5376 94.9652 18.7519 88.9834C23.3846 84.5242 97.0813 41.0407 100.077 40.9984C101.033 40.9852 105.621 43.2075 110.272 45.9351ZM160.055 74.7063L189.944 91.9029L189.981 127.041L190.017 162.18L159.906 179.623C143.346 189.217 129.015 197.067 128.062 197.067C127.109 197.067 112.76 189.241 96.1751 179.677L66.0218 162.287L66.0469 127.095L66.0719 91.9029L96.0563 74.4669C112.548 64.8778 126.969 57.1394 128.104 57.2703C129.238 57.4026 143.616 65.2482 160.055 74.7063ZM236.398 88.2837C245.868 96.8634 249.618 108.009 246.645 118.743C245.378 123.317 242.909 126.996 237.361 132.579C225.401 144.613 225.633 145.052 225.633 110.376V80.5664L228.387 82.044C229.903 82.8575 233.508 85.6658 236.398 88.2837ZM58.1151 157.051C58.1191 194.924 58.6296 218.079 59.5292 221.332C60.3035 224.129 60.6517 226.703 60.3035 227.053C58.9725 228.387 48.5015 220.15 44.9545 214.979C38.4698 205.529 38.1664 202.597 38.5885 153.448L38.9803 107.847L47.5491 102.85C52.261 100.103 56.5652 97.8555 57.1126 97.8555C57.6587 97.8555 58.1112 124.494 58.1151 157.051ZM30.4061 143.493C30.4061 159.862 29.9616 173.241 29.4168 173.223C26.247 173.118 16.0596 163.533 12.8714 157.655C4.08619 141.459 8.35083 126.218 24.4702 116.199C26.6467 114.846 28.872 113.737 29.4168 113.735C29.9616 113.732 30.4061 127.123 30.4061 143.493ZM247.714 142.737C246.881 151.959 241.515 162.823 235.56 167.344C233.365 169.011 214.547 180.246 193.743 192.31L155.92 214.245L146.586 208.847C141.453 205.88 137.265 203.058 137.279 202.575C137.294 202.092 159.807 188.701 187.309 172.818C214.811 156.935 239.581 141.929 242.355 139.473C245.129 137.015 247.629 134.98 247.911 134.95C248.193 134.919 248.105 138.424 247.714 142.737ZM118.44 201.614C146.661 217.939 172.232 232.073 175.267 233.023C178.301 233.973 180.783 235.234 180.783 235.825C180.783 237.422 170.258 241.795 164.002 242.799C154.072 244.39 147.142 241.378 106.25 217.693L66.6813 194.774L66.3001 183.353C66.0904 177.072 66.192 171.933 66.5257 171.933C66.8594 171.933 90.2206 185.29 118.44 201.614ZM213.51 210.205C210.459 216.2 207.423 219.994 203.424 222.806C198.321 226.396 196.686 226.826 188.255 226.787C180.527 226.753 177.513 226.072 171.718 223.047C167.095 220.632 165.082 218.897 165.925 218.052C166.636 217.339 178.431 210.267 192.138 202.337L217.059 187.918L217.467 194.773C217.804 200.415 217.105 203.145 213.51 210.205ZM97.0206 221.47C107.903 227.768 117.332 233.447 117.973 234.087C119.688 235.801 111.374 240.416 103.31 242.226C97.8938 243.442 94.7425 243.423 89.0229 242.139C75.456 239.095 67.4517 228.613 66.2896 212.37L65.6327 203.2L71.4341 206.609C74.6236 208.484 86.138 215.172 97.0206 221.47Z" fill="black"/>
<path d="M58.1151 157.051C58.1191 194.924 58.6296 218.079 59.5292 221.332C60.3035 224.129 60.6517 226.703 60.3035 227.053C58.9725 228.387 48.5015 220.15 44.9545 214.979C38.4698 205.529 38.1664 202.597 38.5885 153.448L38.9803 107.847L47.5491 102.85C52.261 100.103 56.5652 97.8555 57.1126 97.8555C57.6587 97.8555 58.1112 124.494 58.1151 157.051Z" fill="white"/>
<path d="M97.0206 221.47C107.903 227.768 117.332 233.447 117.973 234.087C119.688 235.801 111.374 240.416 103.31 242.226C97.8938 243.442 94.7425 243.423 89.0229 242.139C75.456 239.095 67.4517 228.613 66.2896 212.37L65.6327 203.2L71.4341 206.609C74.6236 208.484 86.138 215.172 97.0206 221.47Z" fill="white"/>
<path d="M30.4061 143.493C30.4061 159.862 29.9616 173.241 29.4168 173.223C26.247 173.118 16.0596 163.533 12.8714 157.655C4.08619 141.459 8.35083 126.218 24.4702 116.199C26.6467 114.846 28.872 113.737 29.4168 113.735C29.9616 113.732 30.4061 127.123 30.4061 143.493Z" fill="white"/>
<path d="M110.272 45.9351C114.925 48.6641 118.594 51.3362 118.428 51.8759C118.262 52.4156 95.5696 65.9056 68.0004 81.8561C40.4313 97.8053 15.5557 112.805 12.7223 115.186L7.56993 119.517L8.28883 111.566C9.12382 102.335 12.5376 94.9652 18.7519 88.9834C23.3846 84.5242 97.0813 41.0407 100.077 40.9984C101.033 40.9852 105.621 43.2075 110.272 45.9351Z" fill="white"/>
<path d="M84.8189 31.531C88.2644 33.2163 91.0794 34.9902 91.0741 35.4704C91.0649 36.2297 42.8571 64.5947 39.2692 65.9533C36.9594 66.8263 39.0779 49.9075 41.9878 44.2433C45.0917 38.198 51.9945 31.1633 56.7881 29.1579C62.4338 26.7967 77.8013 28.097 84.8189 31.531Z" fill="white"/>
<path d="M109.241 13.9455C111.607 14.9218 130.751 25.663 151.782 37.8144L190.017 59.9067V71.0858C190.017 80.9857 189.765 82.1683 187.814 81.4169C186.602 80.9513 163.399 67.71 136.252 51.9936C109.104 36.2786 83.9774 22.5624 80.4145 21.5147C76.8516 20.467 73.9364 19.3704 73.9364 19.0754C73.9364 18.0172 84.5525 13.1373 89.4147 11.9613C95.1132 10.5816 103.003 11.3714 109.241 13.9455Z" fill="white"/>
<path d="M173.671 14.5223C180.182 17.3187 185.611 24.0704 188.149 32.5271C190.198 39.3528 190.679 50.7145 188.891 50.0134C185.003 48.4921 137.286 20.2898 137.272 19.5053C137.241 17.9034 147.682 13.0844 153.536 11.9984C160.377 10.7285 166.677 11.5182 173.671 14.5223Z" fill="white"/>
<path d="M207.35 35.2442C217.291 45.7407 217.014 44.021 217.448 97.8807L217.837 146.188L208.214 151.705L198.591 157.221L197.854 94.7985C197.449 60.4662 196.622 30.9781 196.016 29.269C194.933 26.208 194.975 26.1908 198.732 28.1671C200.831 29.2703 204.709 32.4557 207.35 35.2442Z" fill="white"/>
<path d="M236.398 88.2837C245.868 96.8634 249.618 108.009 246.645 118.743C245.378 123.317 242.909 126.996 237.361 132.579C225.401 144.613 225.633 145.052 225.633 110.376V80.5664L228.387 82.044C229.903 82.8575 233.508 85.6658 236.398 88.2837Z" fill="white"/>
<path d="M247.714 142.737C246.881 151.959 241.515 162.823 235.56 167.344C233.365 169.011 214.547 180.246 193.743 192.31L155.92 214.245L146.586 208.847C141.453 205.88 137.265 203.058 137.279 202.575C137.294 202.092 159.807 188.701 187.309 172.818C214.811 156.935 239.581 141.929 242.355 139.473C245.129 137.015 247.629 134.98 247.911 134.95C248.193 134.919 248.105 138.424 247.714 142.737Z" fill="white"/>
<path d="M118.44 201.614C146.661 217.939 172.232 232.073 175.267 233.023C178.301 233.973 180.783 235.234 180.783 235.825C180.783 237.422 170.258 241.795 164.002 242.799C154.072 244.39 147.142 241.378 106.25 217.693L66.6813 194.774L66.3001 183.353C66.0904 177.072 66.192 171.933 66.5257 171.933C66.8594 171.933 90.2206 185.29 118.44 201.614Z" fill="white"/>
<path d="M213.51 210.205C210.459 216.2 207.423 219.994 203.424 222.806C198.321 226.396 196.686 226.826 188.255 226.787C180.527 226.753 177.513 226.072 171.718 223.047C167.095 220.632 165.082 218.897 165.925 218.052C166.636 217.339 178.431 210.267 192.138 202.337L217.059 187.918L217.467 194.773C217.804 200.415 217.105 203.145 213.51 210.205Z" fill="white"/>
</svg>
