<svg width="1280" height="720" viewBox="0 0 1280 720" fill="none" xmlns="http://www.w3.org/2000/svg">
<g clip-path="url(#clip0_120_85)">
<rect width="1280" height="720" fill="#FAFAFA"/>
<rect width="1280" height="720" fill="url(#paint0_linear_120_85)"/>
<rect width="1280" height="720" fill="#D9D9D9" fill-opacity="0.25"/>
<g filter="url(#filter0_d_120_85)">
<rect x="979.947" y="-83" width="1812.42" height="1019.48" transform="rotate(13.0354 979.947 -83)" fill="url(#paint1_linear_120_85)"/>
</g>
<rect x="33" y="261" width="507" height="83" rx="41.5" fill="url(#paint2_linear_120_85)" stroke="#71717A" stroke-width="2"/>
<rect x="33" y="33" width="162" height="39" rx="19.5" fill="url(#paint3_linear_120_85)" stroke="#71717A" stroke-width="2"/>
<rect x="1153" y="31" width="97" height="39" rx="19.5" fill="url(#paint4_linear_120_85)" stroke="#71717A" stroke-width="2"/>
<rect x="33" y="415" width="662" height="83" rx="41.5" fill="url(#paint5_linear_120_85)" stroke="#71717A" stroke-width="2"/>
<path d="M82 569C109.062 569 131 590.938 131 618C131 645.062 109.062 667 82 667C54.938 667 33 645.062 33 618C33 590.938 54.938 569 82 569Z" fill="url(#paint6_linear_120_85)" stroke="#A1A1AA" stroke-width="2"/>
<path d="M236 569C263.062 569 285 590.938 285 618C285 645.062 263.062 667 236 667C208.938 667 187 645.062 187 618C187 590.938 208.938 569 236 569Z" fill="url(#paint7_linear_120_85)" stroke="#A1A1AA" stroke-width="2"/>
<path d="M390 569C417.062 569 439 590.938 439 618C439 645.062 417.062 667 390 667C362.938 667 341 645.062 341 618C341 590.938 362.938 569 390 569Z" fill="url(#paint8_linear_120_85)" stroke="#A1A1AA" stroke-width="2"/>
<path d="M544 569C571.062 569 593 590.938 593 618C593 645.062 571.062 667 544 667C516.938 667 495 645.062 495 618C495 590.938 516.938 569 544 569Z" fill="url(#paint9_linear_120_85)" stroke="#A1A1AA" stroke-width="2"/>
</g>
<defs>
<filter id="filter0_d_120_85" x="718.4" y="-110.6" width="2058.86" height="1465.21" filterUnits="userSpaceOnUse" color-interpolation-filters="sRGB">
<feFlood flood-opacity="0" result="BackgroundImageFix"/>
<feColorMatrix in="SourceAlpha" type="matrix" values="0 0 0 0 0 0 0 0 0 0 0 0 0 0 0 0 0 0 127 0" result="hardAlpha"/>
<feMorphology radius="13" operator="dilate" in="SourceAlpha" result="effect1_dropShadow_120_85"/>
<feOffset dy="4"/>
<feGaussianBlur stdDeviation="9.3"/>
<feComposite in2="hardAlpha" operator="out"/>
<feColorMatrix type="matrix" values="0 0 0 0 0.631373 0 0 0 0 0.631373 0 0 0 0 0.666667 0 0 0 0.25 0"/>
<feBlend mode="normal" in2="BackgroundImageFix" result="effect1_dropShadow_120_85"/>
<feBlend mode="normal" in="SourceGraphic" in2="effect1_dropShadow_120_85" result="shape"/>
</filter>
<linearGradient id="paint0_linear_120_85" x1="880" y1="561.5" x2="10.4999" y2="11.5" gradientUnits="userSpaceOnUse">
<stop stop-color="#FAFAFA"/>
<stop offset="1" stop-color="#F4F4F5"/>
</linearGradient>
<linearGradient id="paint1_linear_120_85" x1="2225.98" y1="712.056" x2="994.815" y2="-66.7166" gradientUnits="userSpaceOnUse">
<stop stop-color="#FAFAFA"/>
<stop offset="1" stop-color="#F4F4F5"/>
</linearGradient>
<linearGradient id="paint2_linear_120_85" x1="32" y1="302.5" x2="541" y2="302.5" gradientUnits="userSpaceOnUse">
<stop stop-color="#A1A1AA"/>
<stop offset="1" stop-color="#D4D4D8"/>
</linearGradient>
<linearGradient id="paint3_linear_120_85" x1="32" y1="52.5" x2="196" y2="52.5" gradientUnits="userSpaceOnUse">
<stop stop-color="#A1A1AA"/>
<stop offset="1" stop-color="#D4D4D8"/>
</linearGradient>
<linearGradient id="paint4_linear_120_85" x1="1152" y1="50.5" x2="1251" y2="50.5" gradientUnits="userSpaceOnUse">
<stop stop-color="#A1A1AA"/>
<stop offset="1" stop-color="#D4D4D8"/>
</linearGradient>
<linearGradient id="paint5_linear_120_85" x1="32" y1="456.5" x2="696" y2="456.5" gradientUnits="userSpaceOnUse">
<stop stop-color="#A1A1AA"/>
<stop offset="1" stop-color="#D4D4D8"/>
</linearGradient>
<linearGradient id="paint6_linear_120_85" x1="67.5" y1="677" x2="149.5" y2="585.5" gradientUnits="userSpaceOnUse">
<stop stop-color="#D4D4D8"/>
<stop offset="1" stop-color="#E4E4E7"/>
</linearGradient>
<linearGradient id="paint7_linear_120_85" x1="221.5" y1="677" x2="303.5" y2="585.5" gradientUnits="userSpaceOnUse">
<stop stop-color="#D4D4D8"/>
<stop offset="1" stop-color="#E4E4E7"/>
</linearGradient>
<linearGradient id="paint8_linear_120_85" x1="375.5" y1="677" x2="457.5" y2="585.5" gradientUnits="userSpaceOnUse">
<stop stop-color="#D4D4D8"/>
<stop offset="1" stop-color="#E4E4E7"/>
</linearGradient>
<linearGradient id="paint9_linear_120_85" x1="529.5" y1="677" x2="611.5" y2="585.5" gradientUnits="userSpaceOnUse">
<stop stop-color="#D4D4D8"/>
<stop offset="1" stop-color="#E4E4E7"/>
</linearGradient>
<clipPath id="clip0_120_85">
<rect width="1280" height="720" fill="white"/>
</clipPath>
</defs>
</svg>
